<?xml version="1.0" encoding="utf-8"?>
<!-- Generator: Adobe Illustrator 16.0.3, SVG Export Plug-In . SVG Version: 6.00 Build 0)  -->
<!DOCTYPE svg PUBLIC "-//W3C//DTD SVG 1.1 Tiny//EN" "http://www.w3.org/Graphics/SVG/1.1/DTD/svg11-tiny.dtd">
<svg version="1.1" baseProfile="tiny" id="Layer_1" xmlns="http://www.w3.org/2000/svg" xmlns:xlink="http://www.w3.org/1999/xlink"
	 x="0px" y="0px" width="142.066px" height="36px" viewBox="0 0 142.066 36" xml:space="preserve">
<g>
	<g>
		<g>
			<polygon points="0,5.324 5.552,5.324 5.552,25.551 15.834,25.551 15.834,30.676 0,30.676 			"/>
			<g>
				<path d="M18.287,13.488h5.337v17.18h-5.337V13.488z M20.956,4.948c1.709,0,3.096,1.387,3.096,3.097
					c0,1.709-1.387,3.092-3.096,3.092c-1.708,0-3.095-1.383-3.095-3.092C17.861,6.335,19.249,4.948,20.956,4.948"/>
			</g>
			<polygon points="45.937,5.324 51.271,5.324 51.271,20.475 57.317,13.48 63.857,13.48 56.858,21.435 63.711,30.676 57.005,30.676 
				51.34,22.183 51.271,22.183 51.271,30.676 45.937,30.676 			"/>
			<path d="M26.577,13.492H31.7v2.347h0.071c0.711-1.351,2.455-2.774,5.052-2.774c5.409,0,6.405,3.559,6.405,8.184v9.42h-5.337
				v-8.353c0-1.992-0.037-4.553-2.776-4.553c-2.775,0-3.201,2.169-3.201,4.411v8.495h-5.337V13.492z"/>
			<path d="M75.092,20.082c0.034-1.78-1.353-3.274-3.276-3.274c-2.347,0-3.626,1.602-3.769,3.274H75.092z M79.611,27.693
				c-1.711,2.172-4.52,3.418-7.295,3.418c-5.337,0-9.607-3.559-9.607-9.075c0-5.513,4.27-9.072,9.607-9.072
				c4.983,0,8.111,3.559,8.111,9.072v1.672H68.046c0.424,2.029,1.958,3.346,4.02,3.346c1.746,0,2.917-0.889,3.807-2.099
				L79.611,27.693z"/>
			<path d="M91.547,17.643c-2.667,0-4.271,1.78-4.271,4.376c0,2.6,1.604,4.378,4.271,4.378c2.671,0,4.271-1.778,4.271-4.378
				C95.817,19.423,94.218,17.643,91.547,17.643 M100.73,30.666h-4.913v-2.279h-0.069c-0.822,1.247-2.884,2.705-5.303,2.705
				c-5.126,0-8.506-3.699-8.506-8.929c0-4.806,2.99-9.216,7.9-9.216c2.208,0,4.27,0.603,5.48,2.275h0.069V5.324h5.341V30.666z"/>
		</g>
		<path d="M139.403,0h-30.681c-1.465,0-2.655,1.162-2.655,2.596v30.807c0,1.434,1.19,2.598,2.655,2.598h30.681
			c1.469,0,2.663-1.164,2.663-2.598V2.596C142.066,1.162,140.872,0,139.403,0z M116.746,30.676h-5.344v-17.18h5.344V30.676z
			 M114.075,11.149c-1.715,0-3.098-1.387-3.098-3.097c0-1.709,1.383-3.096,3.098-3.096c1.708,0,3.095,1.387,3.095,3.096
			C117.17,9.762,115.783,11.149,114.075,11.149z M136.744,30.676h-5.338v-8.354c0-1.992-0.035-4.555-2.775-4.555
			c-2.778,0-3.202,2.171-3.202,4.413v8.497h-5.333v-17.18h5.118v2.349h0.073c0.712-1.351,2.455-2.775,5.053-2.775
			c5.405,0,6.404,3.557,6.404,8.184V30.676z"/>
	</g>
</g>
</svg>
